<?xml version="1.0" ?><svg id="Layer_1" style="enable-background: new 0 0 426 426" version="1.1" viewBox="0 0 426 426" xml:space="preserve" xmlns="http://www.w3.org/2000/svg" xmlns:xlink="http://www.w3.org/1999/xlink">
<path class="background" d="M 412.5 214.3 c -9.2 58.5 -27.1 75.6 -58.8 114.9 c -31.7 33.3 -77.3 88.9 -141.9 85.8 c -58.5 -9.2 -75.6 -27.1 -114.9 -58.8 C 63.6 324.5 8 278.9 11.1 214.3 c 9.2 -58.5 27.1 -75.6 58.8 -114.9 c 31.7 -33.3 77.3 -88.9 141.9 -85.8 c 58.5 9.2 75.6 27.1 114.9 58.8 C 360 104.1 415.6 149.7 412.5 214.3 z"/><g><circle class="icon" cx="211.8" cy="214" r="25.1"/><path class="icon" d="M 337.7 189 c -8.7 -7.2 -20.9 -13.7 -35.5 -18.7 c -2.9 -1 -5.9 -2 -9 -2.8 c 0.5 -2.1 1 -4.2 1.4 -6.2 c 7 -33.8 2 -60.1 -12.9 -68.7 c -7.3 -4.2 -17.3 -4.2 -28.8 0 c -10.6 3.9 -22.3 11.3 -33.9 21.4 c -2.3 2 -4.7 4.2 -7 6.4 c -1.6 -1.5 -3.1 -2.9 -4.7 -4.3 c -25.8 -22.9 -51.1 -31.8 -66 -23.2 c -7.3 4.2 -12.3 12.9 -14.4 25 c -1.9 11.1 -1.3 25 1.6 40.1 c 0.6 3 1.3 6.2 2.1 9.3 c -3.6 1 -7.1 2.1 -10.4 3.3 c -30.5 10.6 -48.7 26.8 -48.7 43.4 c 0 8.6 5.1 17.6 14.7 25.8 c 9 7.7 21.7 14.5 36.7 19.6 c 2.5 0.8 5 1.6 7.6 2.4 c -0.8 3.4 -1.6 6.7 -2.2 10 c -6 31.7 -1 55.6 13.3 63.9 c 3.8 2.2 8.3 3.3 13.4 3.3 c 4.9 0 10.4 -1 16.2 -3.1 c 11.2 -3.9 23.4 -11.5 35.3 -21.9 c 1.9 -1.7 3.9 -3.5 5.8 -5.4 c 2.5 2.4 5.1 4.7 7.6 6.9 c 18 15.5 35.2 23.7 48.8 23.7 c 4.9 0 9.4 -1.1 13.1 -3.3 c 7.5 -4.3 12.7 -13.2 15 -25.6 c 2.1 -11.7 1.6 -26.1 -1.4 -41.6 c -0.5 -2.5 -1 -5 -1.7 -7.5 c 1.8 -0.5 3.5 -1.1 5.2 -1.6 c 32.8 -10.8 53.1 -28.3 53.1 -45.5 C 352.1 205.6 347.1 196.9 337.7 189 z M 257 103.9 c 8 -2.9 14.6 -3.2 18.7 -0.9 c 8 4.6 13.7 24.1 7.1 55.9 c -0.4 1.8 -0.8 3.7 -1.3 5.5 c -11.7 -2.7 -24.3 -4.7 -37.6 -5.9 c -7.7 -11 -15.7 -20.9 -23.7 -29.5 c 2.1 -2.1 4.3 -4 6.4 -5.9 C 237.3 114 247.8 107.3 257 103.9 z M 251 236.9 c -4.4 7.6 -8.9 14.9 -13.4 21.7 c -8.3 0.6 -16.9 0.9 -25.7 0.9 c -8.8 0 -17.3 -0.3 -25.4 -0.8 c -4.8 -7 -9.4 -14.3 -13.7 -21.7 c -4.3 -7.5 -8.3 -15.1 -12 -22.6 c 3.6 -7.6 7.6 -15.2 11.9 -22.6 l 0 0 c 4.3 -7.5 8.9 -14.8 13.6 -21.7 c 8.4 -0.6 16.9 -1 25.5 -1 c 8.7 0 17.2 0.3 25.6 1 c 4.6 6.9 9.2 14.1 13.5 21.6 c 4.4 7.7 8.5 15.2 12.1 22.5 C 259.4 221.7 255.4 229.3 251 236.9 z M 269.5 228 c 3.8 8.6 6.9 16.8 9.4 24.7 c -8.1 1.9 -16.9 3.4 -26.2 4.5 c 2.9 -4.6 5.8 -9.4 8.6 -14.3 C 264.3 237.9 267 232.9 269.5 228 z M 212.3 291.4 c -5.7 -6.1 -11.4 -12.9 -16.9 -20.2 c 5.3 0.2 10.8 0.3 16.4 0.3 c 5.7 0 11.4 -0.1 17 -0.4 C 223.3 278.5 217.8 285.3 212.3 291.4 z M 171.2 257.3 c -9.2 -1 -17.9 -2.4 -25.8 -4.2 c 2.5 -8 5.5 -16.3 9.1 -24.7 c 2.5 4.8 5.2 9.7 8 14.5 C 165.2 247.9 168.1 252.7 171.2 257.3 z M 162.4 185.7 c -2.8 4.8 -5.4 9.7 -8 14.5 c -3.5 -8.3 -6.5 -16.4 -8.9 -24.3 c 8 -1.8 16.6 -3.3 25.5 -4.4 C 168 176.2 165.1 180.9 162.4 185.7 z M 212 137.6 c 5.5 6 11 12.6 16.5 19.9 c -5.5 -0.3 -11.1 -0.4 -16.7 -0.4 c -5.5 0 -11 0.1 -16.4 0.4 C 200.8 150.3 206.4 143.6 212 137.6 z M 261.3 185.6 c -2.8 -4.8 -5.6 -9.5 -8.5 -14 c 8.9 1.1 17.5 2.6 25.6 4.5 c -2.4 7.8 -5.4 15.9 -9 24.2 C 266.9 195.4 264.2 190.5 261.3 185.6 z M 140.3 155.7 c -2.7 -13.6 -3.2 -26 -1.5 -35.7 c 1.4 -8.4 4.5 -14.3 8.6 -16.7 c 8 -4.6 27.7 0.2 52 21.8 c 1.4 1.2 2.8 2.5 4.2 3.9 c -8.2 8.8 -16.2 18.7 -23.8 29.5 c -13.2 1.2 -25.8 3.2 -37.5 5.8 C 141.5 161.4 140.9 158.6 140.3 155.7 z M 126.7 248.1 c -29.7 -10.1 -43.2 -24.8 -43.2 -34.1 c 0 -8.9 12.6 -22.3 40.7 -32.1 c 3.1 -1.1 6.3 -2.1 9.6 -3 c 3.5 11.5 8.1 23.4 13.7 35.5 c -5.6 12.2 -10.3 24.3 -13.8 35.9 C 131.3 249.6 129 248.8 126.7 248.1 z M 155 327 c -3 0 -5.5 -0.6 -7.4 -1.7 c -7.7 -4.4 -13 -22 -7.5 -51.2 c 0.6 -3 1.3 -6.1 2 -9.3 c 11.4 2.5 24.1 4.4 37.8 5.5 c 7.8 10.9 15.9 21 24.1 29.8 c -1.8 1.7 -3.6 3.4 -5.3 4.9 C 180.5 320.7 164.9 327 155 327 z M 283.8 271 c 6.1 30.8 0.2 49.8 -7.8 54.4 c -7.7 4.5 -25.6 0.3 -48.1 -19.1 c -2.3 -2 -4.7 -4.2 -7.1 -6.4 c 7.9 -8.6 15.8 -18.6 23.5 -29.9 c 13.6 -1.2 26.4 -3.2 38 -5.9 C 282.8 266.5 283.3 268.8 283.8 271 z M 295.3 248.1 c -1.5 0.5 -3.1 1 -4.7 1.5 c -3.5 -11.2 -8.3 -23.1 -14.2 -35.5 c 5.6 -12.1 10.2 -23.9 13.7 -35.1 c 2.9 0.8 5.7 1.7 8.4 2.6 c 13.1 4.5 24.1 10.3 31.7 16.6 c 6.5 5.4 10.1 11 10.1 15.8 C 340.2 223.3 326.1 237.9 295.3 248.1 z"/></g></svg>
